<?xml version="1.0" standalone="no"?>
<!DOCTYPE svg PUBLIC "-//W3C//DTD SVG 20010904//EN"
 "http://www.w3.org/TR/2001/REC-SVG-20010904/DTD/svg10.dtd">
<svg version="1.0" xmlns="http://www.w3.org/2000/svg"
 width="512.000000pt" height="512.000000pt" viewBox="0 0 512.000000 512.000000"
 preserveAspectRatio="xMidYMid meet">

<g transform="translate(0.000000,512.000000) scale(0.100000,-0.100000)"
fill="#000000" stroke="none">
<path d="M827 5104 c-258 -47 -505 -204 -646 -413 -63 -92 -127 -233 -153
-337 l-23 -89 0 -1705 0 -1705 23 -89 c24 -97 90 -245 143 -323 134 -198 358
-355 594 -415 l90 -23 1700 0 c1619 0 1704 1 1780 19 399 92 701 411 770 814
13 77 15 301 12 1763 l-2 1674 -23 85 c-27 100 -93 243 -153 331 -127 188
-344 337 -584 402 l-80 22 -1685 1 c-1414 2 -1697 0 -1763 -12z m3102 -1054
c46 -13 109 -75 121 -120 6 -21 10 -245 10 -555 0 -486 -2 -523 -19 -561 -27
-60 -80 -96 -146 -102 -71 -6 -97 2 -140 40 -65 56 -65 57 -65 373 0 157 -3
285 -8 285 -4 0 -165 -158 -357 -351 -193 -193 -367 -359 -387 -370 -78 -40
-173 -18 -232 55 -38 46 -48 134 -21 187 9 19 177 195 373 391 l355 356 -284
4 c-273 3 -286 4 -326 26 -138 73 -131 269 12 333 37 17 77 19 560 19 312 0
534 -4 554 -10z m-1579 -1619 c89 -47 127 -161 82 -247 -12 -22 -173 -191
-371 -389 -193 -192 -351 -353 -351 -357 0 -5 128 -8 285 -8 267 0 288 -1 325
-20 74 -38 116 -137 90 -214 -16 -50 -57 -95 -105 -117 -37 -17 -77 -19 -560
-19 -310 0 -534 4 -555 10 -40 11 -104 71 -119 113 -7 19 -11 208 -11 555 0
493 2 530 19 568 27 60 80 96 146 102 71 6 97 -2 140 -40 65 -56 65 -57 65
-373 0 -157 3 -285 8 -285 4 0 165 158 357 351 193 193 366 359 385 369 46 25
125 26 170 1z"/>
</g>
</svg>
