<?xml version="1.0" standalone="no"?>
<!DOCTYPE svg PUBLIC "-//W3C//DTD SVG 20010904//EN"
 "http://www.w3.org/TR/2001/REC-SVG-20010904/DTD/svg10.dtd">
<svg version="1.0" xmlns="http://www.w3.org/2000/svg"
 width="512.000000pt" height="512.000000pt" viewBox="0 0 512.000000 512.000000"
 preserveAspectRatio="xMidYMid meet">

<g transform="translate(0.000000,512.000000) scale(0.100000,-0.100000)"
fill="#000000" stroke="none">
<path d="M2165 5101 c-65 -30 -80 -65 -113 -257 -19 -111 -39 -191 -55 -227
-69 -150 -232 -245 -406 -235 -99 6 -157 32 -309 141 -143 102 -151 107 -198
107 -71 0 -112 -32 -356 -278 -313 -315 -308 -298 -139 -540 125 -178 136
-207 136 -338 0 -96 -2 -103 -38 -176 -46 -95 -130 -177 -212 -207 -31 -12
-128 -33 -217 -48 -147 -24 -165 -30 -196 -57 -61 -54 -62 -60 -62 -435 0
-384 2 -399 68 -445 29 -20 72 -31 208 -54 111 -19 191 -39 227 -55 150 -69
245 -232 235 -406 -6 -99 -32 -157 -141 -309 -102 -143 -107 -151 -107 -198 0
-71 32 -112 278 -356 315 -313 298 -308 540 -139 178 125 207 136 338 136 96
0 103 -2 176 -38 95 -46 177 -130 207 -212 12 -31 33 -128 48 -217 24 -147 30
-165 57 -196 54 -61 60 -62 435 -62 384 0 399 2 445 68 20 29 31 72 54 208 19
111 39 191 55 227 69 150 232 245 406 235 99 -6 157 -32 309 -141 143 -102
151 -107 198 -107 71 0 112 32 356 278 313 315 308 298 139 540 -125 178 -136
207 -136 338 0 96 2 103 38 176 46 95 130 177 212 207 31 12 128 33 217 48
147 24 165 30 196 57 61 54 62 60 62 435 0 384 -2 399 -68 445 -29 20 -72 31
-208 54 -111 19 -191 39 -227 55 -150 69 -245 232 -235 406 6 99 32 157 141
309 102 143 107 151 107 198 0 71 -32 112 -278 356 -315 313 -298 308 -540
139 -178 -125 -207 -136 -338 -136 -96 0 -103 2 -176 38 -95 46 -177 130 -207
212 -12 31 -33 128 -48 217 -24 147 -30 165 -57 196 -54 61 -60 62 -438 62
-314 0 -346 -2 -383 -19z m618 -1231 c725 -124 1211 -809 1087 -1533 -124
-725 -809 -1211 -1533 -1087 -725 124 -1211 809 -1087 1533 124 725 809 1211
1533 1087z"/>
<path d="M2380 3559 c-87 -15 -242 -72 -323 -118 -225 -129 -398 -351 -473
-606 -31 -109 -43 -315 -25 -435 60 -383 345 -704 726 -816 109 -31 315 -43
435 -25 383 60 704 345 816 726 31 109 43 315 25 435 -60 383 -344 703 -726
816 -77 22 -113 27 -245 30 -85 1 -180 -1 -210 -7z m330 -486 c89 -24 151 -62
226 -137 110 -110 156 -221 156 -376 0 -155 -46 -266 -156 -376 -110 -110
-221 -156 -376 -156 -155 0 -266 46 -376 156 -110 110 -156 221 -156 376 0 93
18 173 58 251 29 59 120 158 181 198 124 83 289 106 443 64z"/>
</g>
</svg>
