<?xml version="1.0" standalone="no"?>
<!DOCTYPE svg PUBLIC "-//W3C//DTD SVG 20010904//EN"
 "http://www.w3.org/TR/2001/REC-SVG-20010904/DTD/svg10.dtd">
<svg version="1.0" xmlns="http://www.w3.org/2000/svg"
 width="512.000000pt" height="512.000000pt" viewBox="0 0 512.000000 512.000000"
 preserveAspectRatio="xMidYMid meet">

<g transform="translate(0.000000,512.000000) scale(0.100000,-0.100000)"
fill="#000000" stroke="none">
<path d="M510 4721 c-216 -30 -412 -192 -483 -400 -22 -65 -22 -73 -25 -742
-3 -732 -2 -758 51 -872 54 -118 176 -240 287 -290 108 -48 122 -50 585 -56
436 -6 440 -6 485 -29 137 -72 182 -188 161 -415 -5 -62 -20 -143 -31 -182
-76 -247 -288 -453 -542 -526 -58 -16 -114 -22 -274 -27 -190 -7 -202 -8 -236
-31 -44 -30 -77 -79 -89 -128 -12 -55 -11 -413 2 -474 16 -76 76 -133 155
-149 71 -15 346 -6 476 15 429 69 825 322 1060 675 61 92 158 289 192 390 13
41 35 120 47 175 l23 100 4 1220 c2 887 0 1236 -8 1280 -33 169 -151 327 -304
405 -130 65 -105 63 -826 66 -360 1 -680 -1 -710 -5z"/>
<path d="M3265 4720 c-215 -30 -399 -178 -474 -383 l-26 -72 -3 -692 c-3 -765
-3 -762 61 -892 40 -84 158 -204 242 -248 126 -66 126 -66 615 -72 437 -6 446
-6 487 -29 54 -28 107 -81 135 -135 31 -58 38 -267 14 -387 -47 -229 -209
-441 -418 -543 -137 -68 -192 -79 -420 -86 l-196 -6 -43 -30 c-23 -16 -53 -50
-66 -74 -22 -43 -23 -52 -23 -278 0 -254 4 -280 58 -336 56 -59 70 -62 277
-61 199 1 309 12 435 46 663 173 1124 709 1191 1381 6 64 9 534 7 1267 l-3
1165 -22 66 c-61 178 -212 322 -403 385 -50 17 -109 18 -710 20 -360 1 -682
-2 -715 -6z"/>
</g>
</svg>
